HIERARCHY
ROOT root
{
	OFFSET 0.000000 0.000000 0.000000
	CHANNELS 6 Xposition Yposition Zposition Zrotation Yrotation Xrotation
	JOINT lhip
	{
		OFFSET 0.058581 -0.082280 -0.017664
		CHANNELS 3 Zrotation Yrotation Xrotation
		JOINT lknee
		{
			OFFSET 0.043451 -0.386469 0.008037
			CHANNELS 3 Zrotation Yrotation Xrotation
			JOINT lankle
			{
				OFFSET -0.014790 -0.426874 -0.037428
				CHANNELS 3 Zrotation Yrotation Xrotation
				JOINT ltoe
				{
					OFFSET 0.041054 -0.060286 0.122042
					CHANNELS 3 Zrotation Yrotation Xrotation
					End Site
					{
						OFFSET 0.000000 0.000000 0.000000
					}
				}
			}
		}
	}
	JOINT rhip
	{
		OFFSET -0.060310 -0.090513 -0.013543
		CHANNELS 3 Zrotation Yrotation Xrotation
		JOINT rknee
		{
			OFFSET -0.043257 -0.383688 -0.004843
			CHANNELS 3 Zrotation Yrotation Xrotation
			JOINT rankle
			{
				OFFSET 0.019056 -0.420046 -0.034562
				CHANNELS 3 Zrotation Yrotation Xrotation
				JOINT rtoe
				{
					OFFSET -0.034840 -0.062106 0.130323
					CHANNELS 3 Zrotation Yrotation Xrotation
					End Site
					{
						OFFSET 0.000000 0.000000 0.000000
					}
				}
			}
		}
	}
	JOINT lowerback
	{
		OFFSET 0.004439 0.124404 -0.038385
		CHANNELS 3 Zrotation Yrotation Xrotation
		JOINT upperback
		{
			OFFSET 0.004488 0.137956 0.026820
			CHANNELS 3 Zrotation Yrotation Xrotation
			JOINT chest
			{
				OFFSET -0.002265 0.056032 0.002855
				CHANNELS 3 Zrotation Yrotation Xrotation
				JOINT lowerneck
				{
					OFFSET -0.013390 0.211636 -0.033468
					CHANNELS 3 Zrotation Yrotation Xrotation
					JOINT upperneck
					{
						OFFSET 0.010113 0.088937 0.050410
						CHANNELS 3 Zrotation Yrotation Xrotation
						End Site
						{
							OFFSET 0.000000 0.000000 0.000000
						}
					}
				}
				JOINT lclavicle
				{
					OFFSET 0.071702 0.114000 -0.018898
					CHANNELS 3 Zrotation Yrotation Xrotation
					JOINT lshoulder
					{
						OFFSET 0.122921 0.045205 -0.019046
						CHANNELS 3 Zrotation Yrotation Xrotation
						JOINT lelbow
						{
							OFFSET 0.255332 -0.015649 -0.022946
							CHANNELS 3 Zrotation Yrotation Xrotation
							JOINT lwrist
							{
								OFFSET 0.265709 0.012698 -0.007375
								CHANNELS 3 Zrotation Yrotation Xrotation
								End Site
								{
									OFFSET 0.000000 0.000000 0.000000
								}
							}
						}
					}
				}
				JOINT rclavicle
				{
					OFFSET -0.082954 0.112472 -0.023707
					CHANNELS 3 Zrotation Yrotation Xrotation
					JOINT rshoulder
					{
						OFFSET -0.113228 0.046853 -0.008472
						CHANNELS 3 Zrotation Yrotation Xrotation
						JOINT relbow
						{
							OFFSET -0.260127 -0.014369 -0.031269
							CHANNELS 3 Zrotation Yrotation Xrotation
							JOINT rwrist
							{
								OFFSET -0.269108 0.006794 -0.006027
								CHANNELS 3 Zrotation Yrotation Xrotation
								End Site
								{
									OFFSET 0.000000 0.000000 0.000000
								}
							}
						}
					}
				}
			}
		}
	}
}
MOTION
Frames: 13
Frame Time: 0.033333
0.081202 0.788985 0.981582 -96.688334 -1.632887 82.041610 8.735140 -9.126361 -39.008427 -8.033755 7.860975 53.308493 2.890388 7.401036 -17.283862 0.000000 -0.000000 0.000000 -0.538262 -2.063641 9.941389 1.768672 8.359237 15.457589 0.568162 -3.641079 -18.085948 0.000000 -0.000000 0.000000 -3.837202 11.947423 11.022667 2.039893 -2.681172 5.891280 -0.586109 1.245109 6.557835 3.861806 3.973493 12.487855 5.097167 -0.777818 18.204733 -22.955386 5.262326 3.047598 -64.667974 -1.827001 5.799732 12.058905 -25.971013 6.844859 -2.044358 -1.956896 -10.459904 22.127980 -0.556812 2.681107 63.805385 7.665511 11.466963 -15.788120 34.517426 2.090235 7.928439 3.969842 -13.079066 
0.062803 0.786133 0.980600 -96.937535 -1.414795 82.984232 7.845555 -8.978021 -37.047432 -7.710294 7.077509 51.215037 6.708320 9.809389 -19.840687 0.000000 -0.000000 0.000000 -0.919715 -2.337445 10.470503 2.096612 8.915983 14.887618 0.663840 -4.220035 -17.664987 0.000000 -0.000000 0.000000 -4.041789 12.015574 10.314456 1.776861 -2.282707 5.322262 -0.653678 1.393137 6.770272 3.814698 3.513841 12.136728 5.110743 -0.818300 18.561466 -22.739001 5.918967 3.433897 -64.431980 -2.133701 5.402248 11.645793 -26.251757 7.443569 -0.772306 -1.490475 -11.209737 22.175079 -0.992562 3.014158 64.098986 7.450155 11.646498 -15.724679 34.745553 2.338412 5.810713 3.854143 -12.509674 
0.045272 0.782460 0.982358 -96.511506 -1.033906 83.754644 6.842230 -8.789820 -36.908671 -7.702093 6.318960 52.495869 7.836997 10.080023 -21.566657 0.000000 -0.000000 0.000000 -1.057397 -2.875069 11.024887 1.998544 9.100393 14.554922 1.333469 -3.902355 -16.530748 0.000000 -0.000000 0.000000 -3.995403 12.003512 10.447439 1.511365 -2.281848 4.435420 -0.704053 1.413905 6.922034 3.771730 3.036170 11.559835 5.296368 -0.549507 19.011524 -22.820336 5.983647 3.370956 -64.061936 -2.158292 5.201199 11.595036 -26.454160 7.108109 -0.544386 -1.701530 -10.936549 22.135958 -1.208402 2.872445 64.387539 6.860516 11.567330 -15.462829 34.021544 2.263338 6.532483 4.073773 -11.975746 
0.028805 0.778460 0.985938 -95.990299 -1.185463 84.952754 6.935630 -10.094858 -37.320648 -7.778381 7.470543 52.460143 7.113799 10.262485 -20.801790 0.000000 -0.000000 0.000000 -1.630745 -2.164708 11.103336 1.960136 8.199959 13.789017 2.428959 -3.606755 -13.797815 0.000000 -0.000000 0.000000 -4.923309 12.407179 10.031857 1.569069 -2.472440 4.306998 -0.640006 1.451729 6.792253 4.015356 2.845192 11.110509 5.629417 -1.231969 17.973421 -22.655897 5.679582 3.357834 -64.032711 -2.762091 5.812284 11.884118 -26.192651 6.028589 -0.406416 -1.915483 -10.833009 22.138926 -1.459122 2.798886 64.699044 6.260979 12.081059 -16.134864 33.573425 1.466378 5.885885 3.634746 -12.347916 
0.010588 0.774043 0.992962 -95.679997 -1.124546 85.370361 5.679058 -10.537495 -35.248715 -7.973630 6.340986 50.934224 8.189435 11.691832 -22.505709 0.000000 -0.000000 0.000000 -1.990499 -2.098018 11.756301 1.732519 8.380459 13.651782 3.957923 -3.531095 -10.140891 0.000000 -0.000000 0.000000 -5.489123 12.896300 9.801808 1.579784 -2.345000 4.884800 -0.528364 1.343492 6.591847 4.237258 2.320104 10.989829 5.963090 -1.374574 17.879863 -22.321728 4.894568 3.863852 -64.353534 -3.594833 6.047789 12.233651 -26.223993 5.665142 0.209208 -2.218197 -11.172275 21.913128 -1.189421 3.053672 65.107484 5.677212 12.016362 -16.992009 32.880099 0.203042 5.933480 3.446835 -12.808553 
-0.006841 0.769215 1.002776 -95.369650 -0.798163 86.208455 5.000122 -10.838273 -33.440133 -7.813752 5.774600 48.788860 8.289254 11.934479 -22.966039 0.000000 -0.000000 0.000000 -2.089897 -1.873975 11.197024 1.527704 7.748634 14.335051 6.042059 -2.929120 -5.529928 0.000000 -0.000000 0.000000 -5.995268 12.934273 9.311628 1.656920 -2.151003 4.929770 -0.352626 1.355401 6.726686 4.673450 2.109905 10.835799 6.182762 -1.595279 17.298061 -22.298408 4.672830 3.692116 -64.466316 -4.180551 6.843969 12.667044 -26.671398 4.928174 -0.186464 -2.594414 -10.928487 21.929843 -1.408197 2.653955 64.851082 5.019516 12.466871 -16.839753 31.837423 -0.178905 6.574065 3.267441 -12.792486 
-0.023268 0.763998 1.013940 -94.724480 -0.471967 87.174855 4.195119 -11.157024 -31.600081 -7.646967 4.893731 46.012846 8.804019 12.364220 -22.842745 0.000000 -0.000000 0.000000 -2.157102 -1.741589 9.558144 1.458995 7.086844 16.222211 7.982985 -2.483020 0.100490 0.000000 -0.000000 0.000000 -6.554045 12.532894 8.851685 1.772805 -2.104972 4.694594 -0.157836 1.199755 6.779510 5.004498 1.818667 10.864191 6.561421 -1.513326 17.201994 -22.123007 4.915315 3.746120 -64.557566 -4.652850 7.362337 12.732753 -28.198985 4.325119 -0.204406 -2.693262 -10.474825 21.688552 -1.813148 2.533818 64.806167 4.403215 12.894567 -16.825522 31.349572 -0.368103 7.035685 3.172866 -11.896922 
-0.039356 0.758734 1.026522 -93.787208 0.014847 87.787076 3.062372 -11.053532 -29.044624 -7.462164 2.927085 42.855344 9.251148 12.706836 -22.714319 0.000000 -0.000000 0.000000 -2.045581 -2.112536 7.047756 1.342663 6.399243 19.869561 9.909404 -2.055659 5.598273 0.000000 -0.000000 0.000000 -6.795934 11.800826 8.924454 1.910570 -2.133577 4.419078 0.033686 0.836961 6.663945 4.985628 0.964026 10.888387 6.749783 -1.404892 16.928225 -22.040397 5.021499 4.449573 -64.477423 -5.200294 7.393083 12.701216 -29.952458 4.217449 -0.307417 -2.992881 -10.852436 21.542255 -2.293304 2.545926 64.598336 3.841764 12.678400 -16.860953 31.354057 -0.655773 8.228387 3.097973 -11.108342 
-0.050127 0.755063 1.036149 -93.424227 0.328333 88.118729 2.596821 -11.059840 -26.934380 -7.444375 1.973483 40.090261 9.400788 12.871673 -22.256979 0.000000 -0.000000 0.000000 -1.829672 -1.550170 4.286989 1.318365 5.598329 24.347588 11.264371 -1.974011 7.969101 0.000000 -0.000000 0.000000 -6.880775 11.124552 9.044632 1.969414 -1.764803 4.166646 0.051156 0.737172 6.814464 5.506840 1.052031 10.874383 6.473054 -1.389265 16.867920 -21.629600 5.074591 4.049442 -64.556170 -5.487288 8.103393 12.443884 -30.710521 4.179882 -0.289741 -3.404269 -11.018155 21.255510 -2.711310 2.249992 64.892560 3.247137 12.939808 -17.089269 31.043506 -1.692575 7.499573 3.291822 -11.602779 
-0.062929 0.750829 1.048262 -93.276626 0.712046 88.491112 1.907224 -10.682108 -24.133948 -7.253004 0.467509 36.329534 9.563149 12.833963 -21.621676 0.000000 -0.000000 0.000000 -1.248073 -0.376101 -1.002710 1.149759 4.257078 33.377482 10.529726 -3.372160 9.713618 0.000000 -0.000000 0.000000 -7.163886 9.882160 9.356446 2.083027 -1.201221 4.060544 0.088173 0.449591 6.626794 5.707071 1.131474 10.567596 6.356443 -1.393360 16.546418 -21.502432 5.144639 4.414764 -64.252896 -5.994078 8.080117 12.510822 -32.243235 3.819093 -0.830387 -3.592846 -11.330774 21.193390 -2.828092 2.473118 64.850344 2.918548 12.902056 -17.436340 31.050314 -2.906654 7.315144 3.742642 -11.972632 
-0.075951 0.746654 1.059265 -92.832039 0.960416 88.185315 0.847432 -10.277831 -20.485945 -6.944843 -1.489107 32.404601 9.626946 13.291077 -20.894678 0.000000 -0.000000 0.000000 -1.252754 0.511376 -6.181792 0.153871 1.212032 44.116263 8.885293 -6.650125 7.390141 0.000000 -0.000000 0.000000 -7.378596 8.442836 9.992567 2.205243 -0.789964 4.294012 0.107015 0.184789 6.873729 6.156741 1.804480 10.018282 6.048954 -1.115741 15.983755 -21.138510 4.819997 3.755634 -64.058582 -6.224615 8.849728 12.608737 -32.889257 3.356966 -0.161017 -3.567732 -11.878949 21.132138 -2.931256 1.495739 64.980811 1.979654 13.454455 -18.121141 31.233220 -4.280202 7.203842 3.702274 -12.019881 
-0.088037 0.742951 1.069329 -92.100127 1.363641 87.432211 -0.008718 -9.457176 -16.627933 -6.790782 -4.042794 28.857973 9.435884 13.756522 -20.351117 0.000000 -0.000000 0.000000 -1.443893 1.387429 -11.114562 -1.067375 -1.533433 55.226344 7.291857 -8.562153 3.609974 0.000000 -0.000000 0.000000 -7.010659 6.588055 11.276533 2.167673 -0.651771 4.324407 -0.034668 -0.205367 6.772579 6.267926 2.301053 10.130987 5.573741 -0.906185 16.143324 -21.195523 4.189714 3.861407 -63.359686 -6.335703 8.682789 12.970544 -33.552571 2.534792 -0.151258 -2.972894 -12.210366 21.022922 -2.609347 1.289089 65.007074 1.399185 13.121437 -18.510844 31.363909 -5.085612 7.528738 3.528350 -11.990439 
-0.101612 0.739480 1.080032 -90.448356 2.333525 86.719239 -0.091393 -8.439269 -12.681136 -6.617418 -6.717094 25.153829 9.284610 13.445303 -19.570066 0.000000 -0.000000 0.000000 -1.697445 2.361867 -17.576847 -1.489456 -4.482860 68.140903 5.679114 -9.807035 -1.001053 0.000000 -0.000000 0.000000 -6.180492 3.844376 12.483738 2.386739 -0.817335 4.591804 -0.241527 -0.735901 6.448747 6.355700 2.790821 10.783718 4.956654 -0.590021 15.879146 -21.324637 3.486455 3.650653 -62.721164 -6.647982 8.404619 13.335743 -33.403448 1.334642 -0.153570 -2.621135 -11.444324 20.947902 -2.479335 1.272394 64.753492 0.639962 12.492535 -18.662577 31.641528 -5.800628 7.420027 3.743764 -11.455514 
